<?xml version="1.0" encoding="UTF-8" ?>
<!DOCTYPE svg PUBLIC "-//W3C//DTD SVG 1.1//EN" "http://www.w3.org/Graphics/SVG/1.1/DTD/svg11.dtd">
<svg width="200pt" height="64pt" viewBox="0 0 200 64" version="1.1" xmlns="http://www.w3.org/2000/svg">
<path fill="rgba(255,255,255,0)" d=" M 0.00 0.00 L 27.39 0.00 C 27.41 0.21 27.44 0.62 27.45 0.82 C 19.90 2.15 12.68 5.83 7.87 11.91 C -2.59 23.93 -1.57 44.04 10.32 54.74 C 20.93 65.37 39.39 66.49 51.21 57.25 C 58.42 51.92 63.28 43.36 63.57 34.34 C 62.11 47.06 51.63 57.95 39.04 60.05 C 27.34 62.20 14.72 56.65 8.38 46.60 C 1.85 36.40 2.30 22.25 9.66 12.60 C 13.75 7.00 19.86 2.87 26.68 1.48 C 28.31 1.96 29.61 0.89 30.82 0.00 L 200.00 0.00 L 200.00 64.00 L 0.00 64.00 L 0.00 0.00 Z" />
<path fill="#2a8601" d=" M 27.39 0.00 L 30.82 0.00 C 29.61 0.89 28.31 1.96 26.68 1.48 C 19.86 2.87 13.75 7.00 9.66 12.60 C 2.30 22.25 1.85 36.40 8.38 46.60 C 14.72 56.65 27.34 62.20 39.04 60.05 C 51.63 57.95 62.11 47.06 63.57 34.34 C 63.28 43.36 58.42 51.92 51.21 57.25 C 39.39 66.49 20.93 65.37 10.32 54.74 C -1.57 44.04 -2.59 23.93 7.87 11.91 C 12.68 5.83 19.90 2.15 27.45 0.82 C 27.44 0.62 27.41 0.21 27.39 0.00 Z" />
<path fill="#2a8601" d=" M 30.84 2.75 C 33.59 3.39 34.74 6.04 34.40 8.66 C 35.91 8.83 37.41 9.05 38.92 9.25 C 38.47 8.16 38.03 7.07 37.58 5.98 C 38.21 4.93 38.04 2.62 39.84 3.17 C 41.85 4.90 41.68 7.62 40.90 9.91 C 42.38 10.56 43.85 11.22 45.31 11.91 C 44.51 9.58 44.69 6.99 46.34 5.08 C 49.74 6.02 48.82 10.77 47.27 13.04 C 48.33 13.97 49.38 14.90 50.42 15.85 C 50.18 13.23 51.29 10.93 53.20 9.19 C 55.36 11.88 54.87 15.52 52.46 17.88 C 58.62 25.20 59.88 35.73 56.31 44.52 C 56.80 40.06 57.46 35.46 56.24 31.05 C 55.33 26.81 52.97 23.11 50.62 19.54 C 47.99 22.37 43.91 23.20 40.61 20.96 C 42.49 18.28 45.60 17.30 48.77 17.67 C 47.74 16.82 46.72 15.96 45.70 15.10 C 43.47 17.39 40.21 18.40 37.20 16.87 C 38.51 14.59 40.81 13.47 43.39 13.41 C 42.25 12.92 41.13 12.41 40.01 11.89 C 38.41 14.47 35.65 15.99 32.59 15.08 C 33.53 12.84 35.37 11.10 37.94 11.12 C 36.69 10.84 35.45 10.54 34.21 10.24 C 33.33 12.78 31.22 14.64 28.37 14.40 C 29.06 12.79 29.93 11.27 30.92 9.83 C 30.24 9.96 28.86 10.22 28.17 10.34 C 27.55 12.20 26.70 14.02 24.68 14.69 C 24.15 13.86 23.61 13.04 23.07 12.21 L 22.67 14.09 C 22.26 14.43 21.45 15.12 21.04 15.46 C 21.15 14.06 21.30 12.67 21.50 11.29 C 20.24 10.61 19.42 9.54 18.99 8.20 C 21.64 8.35 23.26 11.11 26.08 10.55 C 24.85 9.14 23.64 7.70 22.70 6.07 C 25.09 5.64 26.70 7.03 27.86 8.93 C 29.51 8.84 31.17 8.75 32.83 8.68 C 31.23 7.09 30.57 4.99 30.84 2.75 Z" />
<path fill="#ECECEC" d=" M 24.38 11.36 C 24.64 11.63 24.64 11.63 24.38 11.36 Z" />
<path fill="#2a8601" d=" M 16.36 14.83 C 16.85 12.84 18.70 11.88 20.68 12.02 C 19.85 13.70 18.48 15.42 16.36 14.83 Z" />
<path fill="#2a8601" d=" M 28.48 24.42 C 31.03 21.80 34.66 20.66 38.24 20.50 C 40.45 23.39 44.07 24.51 47.59 23.71 C 52.80 27.61 55.68 34.52 54.21 40.94 C 52.70 49.39 45.33 56.21 36.88 57.39 C 27.35 58.52 17.59 53.30 12.84 45.03 C 9.81 39.94 8.79 33.77 9.87 27.96 C 10.92 35.49 13.73 43.28 19.80 48.21 C 25.99 52.65 34.90 54.87 41.84 50.84 C 47.98 47.57 51.94 39.59 49.15 32.90 C 47.28 28.04 42.12 24.67 36.90 25.23 C 31.06 25.56 26.28 32.97 29.79 38.12 C 31.33 40.69 34.39 41.31 37.10 41.86 C 34.68 40.95 31.73 40.25 30.60 37.63 C 28.32 32.96 32.97 27.02 38.07 28.23 C 43.41 28.59 46.86 34.94 44.53 39.70 C 42.16 46.32 32.73 47.90 27.96 42.94 C 22.37 38.25 23.09 28.97 28.48 24.42 Z" />
<path fill="#2a8601" d=" M 75.87 25.83 C 77.91 25.93 79.94 26.01 81.98 26.10 C 82.82 28.47 83.67 30.83 84.55 33.19 C 85.30 30.84 86.04 28.39 85.53 25.90 C 87.24 25.91 88.96 25.93 90.69 25.94 C 89.73 31.64 88.22 37.22 87.00 42.87 C 85.51 42.82 84.03 42.80 82.54 42.75 C 81.53 40.07 80.53 37.39 79.48 34.73 C 78.86 36.88 78.31 39.05 77.76 41.22 C 77.99 41.63 78.47 42.45 78.71 42.86 C 76.82 42.84 74.93 42.82 73.05 42.76 C 73.54 37.05 76.70 31.56 75.87 25.83 Z" />
<path fill="#2a8601" d=" M 144.57 28.55 C 143.91 25.02 147.60 26.14 149.77 25.85 C 149.68 26.51 149.49 27.81 149.39 28.47 C 147.78 28.55 146.17 28.58 144.57 28.55 Z" />
<path fill="#2a8601" d=" M 150.38 30.84 C 152.88 29.42 155.04 27.44 157.75 26.40 C 157.64 27.12 157.41 28.55 157.29 29.27 C 158.15 29.27 159.86 29.28 160.71 29.29 C 160.77 32.04 158.75 32.52 156.50 32.55 C 155.96 34.87 155.45 37.20 155.06 39.55 C 156.58 39.47 157.97 39.01 159.23 38.16 C 158.77 39.70 158.34 41.25 157.92 42.80 C 155.18 42.84 152.43 42.84 149.69 42.81 C 149.19 38.77 152.83 34.52 150.38 30.84 Z" />
<path fill="#2a8601" d=" M 94.53 29.66 C 97.26 28.92 100.49 28.72 103.11 29.88 C 105.45 32.58 103.37 36.61 102.53 39.63 C 101.61 42.85 97.85 43.29 95.03 43.11 C 93.11 43.08 90.03 42.64 90.25 40.04 C 90.73 36.43 91.01 31.66 94.53 29.66 Z" />
<path fill="#2a8601" d=" M 106.38 29.10 C 108.25 29.23 110.11 29.32 111.98 29.43 C 111.44 32.61 110.39 35.71 110.14 38.93 C 111.04 40.42 112.35 38.55 112.57 37.57 C 113.21 34.85 114.45 31.96 113.53 29.17 C 115.48 29.28 117.43 29.36 119.38 29.48 C 118.46 33.99 117.01 38.40 116.64 43.00 C 114.92 42.53 112.26 43.63 111.33 41.62 C 109.56 43.70 106.71 42.84 104.42 42.38 C 104.74 37.91 107.07 33.62 106.38 29.10 Z" />
<path fill="#2a8601" d=" M 121.20 29.12 C 123.29 29.23 125.39 29.36 127.47 29.65 C 128.82 29.46 130.18 29.29 131.54 29.14 C 131.32 30.05 130.89 31.85 130.68 32.76 C 129.34 32.79 128.01 32.81 126.67 32.84 C 125.63 36.13 124.63 39.49 124.62 42.98 C 122.84 42.85 121.07 42.80 119.30 42.68 C 120.12 38.72 121.04 34.78 122.02 30.85 C 121.81 30.42 121.40 29.55 121.20 29.12 Z" />
<path fill="#2a8601" d=" M 162.41 29.12 C 164.27 29.23 166.13 29.32 167.99 29.43 C 167.60 32.81 165.77 36.17 166.49 39.57 C 169.96 38.50 168.87 33.52 170.20 30.80 C 169.97 30.40 169.51 29.59 169.29 29.18 C 171.32 29.27 173.36 29.35 175.39 29.47 C 174.44 33.97 173.05 38.39 172.64 42.98 C 170.94 42.49 168.13 43.72 167.38 41.56 C 165.74 43.37 162.57 43.51 160.67 42.07 C 160.47 37.67 163.23 33.55 162.41 29.12 Z" />
<path fill="#2a8601" d=" M 177.44 29.07 C 179.45 29.24 181.45 29.40 183.45 29.65 C 184.80 29.45 186.15 29.29 187.52 29.15 C 187.30 29.97 186.86 31.61 186.64 32.43 C 185.35 32.93 183.93 32.78 182.58 32.91 C 181.56 36.17 180.44 39.50 180.59 42.96 C 178.79 42.86 176.99 42.80 175.20 42.70 C 175.80 38.14 178.06 33.73 177.44 29.07 Z" />
<path fill="#2a8601" d=" M 188.09 32.17 C 189.79 28.29 194.95 28.74 198.32 29.66 C 199.99 31.55 198.81 34.30 198.67 36.53 C 196.24 36.54 193.81 36.57 191.38 36.57 C 191.43 37.47 191.51 38.37 191.64 39.26 C 193.18 39.27 194.72 39.29 196.27 39.31 C 196.75 38.97 197.71 38.30 198.19 37.96 C 197.75 39.49 197.48 41.08 196.82 42.54 C 193.63 43.32 189.92 43.62 186.91 42.08 C 185.46 38.89 186.92 35.23 188.09 32.17 Z" />
<path fill="#2a8601" d=" M 132.49 29.04 C 134.52 29.24 136.57 29.40 138.60 29.67 C 139.58 29.53 141.54 29.26 142.53 29.13 C 142.31 30.01 141.89 31.78 141.67 32.66 C 140.24 32.80 138.82 33.01 137.39 33.17 C 136.60 36.40 135.61 39.62 135.61 42.98 C 133.83 42.86 132.05 42.80 130.27 42.69 C 130.89 38.12 133.17 33.69 132.49 29.04 Z" />
<path fill="#2a8601" d=" M 143.46 29.11 C 145.31 29.22 147.16 29.32 149.02 29.42 C 148.45 33.98 146.59 38.34 146.62 42.98 C 144.83 42.86 143.04 42.81 141.26 42.69 C 141.84 38.14 144.13 33.74 143.46 29.11 Z" />
<path fill="#ECECEC" d=" M 96.65 32.40 C 97.57 32.42 98.50 32.45 99.42 32.47 C 99.04 34.93 98.48 37.35 97.65 39.69 C 97.02 39.70 95.77 39.72 95.15 39.73 C 95.45 37.25 95.99 34.81 96.65 32.40 Z" />
<path fill="#ECECEC" d=" M 191.95 34.48 C 192.23 32.84 194.00 31.29 195.42 32.94 C 195.13 34.77 193.22 34.21 191.95 34.48 Z" />
</svg>
